# xmcd
#
# Track frame offsets: 
#        150
#        21487
#        39491
#        62778
#        81995
#        102235
#        126519
#        145806
#        162718
#        184835
#        203527
#
# Disc length: 2962 seconds
#
# Revision: 0
# Processed by: cddbd v1.5.2PL0 Copyright (c) Steve Scherf et al.
# Submitted via: ExactAudioCopy v0.99pb3
#
DISCID=a10b900b
DTITLE=John Mayall - Wake Up Call
DYEAR=1993
DGENRE=
TTITLE0=Mail order mystics
TTITLE1=Maydell
TTITLE2=I could cry
TTITLE3=Wake-up call
TTITLE4=Loaded dice
TTITLE5=Undercover agent for the blues
TTITLE6=Light the fuse
TTITLE7=Anything i can say
TTITLE8=Rature's disappearing
TTITLE9=I'm a sucker for love
TTITLE10=Not at home
EXTD=
EXTT0=
EXTT1=
EXTT2=
EXTT3=
EXTT4=
EXTT5=
EXTT6=
EXTT7=
EXTT8=
EXTT9=
EXTT10=
PLAYORDER=
